# xmcd
#
# Track frame offsets:
#	150
#	16069
#	35526
#	51179
#	68044
#	86398
#	102669
#	117838
#	136495
#	154876
#	174998
#	188955
#	208616
#	223795
#	243266
#	260883
#	282091
#	303041
#
# Disc length: 4300 seconds
#
# Revision: 1
# Processed by: cddbd v1.5.2PL0 Copyright (c) Steve Scherf et al.
# Submitted via: audiograbber 1.83.01
#
DISCID=fe10ca12
DTITLE=Anastacia - Greatest Hits
DYEAR=2004
DGENRE=Pop
TTITLE0=Sick And Tired
TTITLE1=Left Outside Alone
TTITLE2=One Day In Your Life
TTITLE3=Why'd You Lie To Me
TTITLE4=I'm Outta Love
TTITLE5=Made For Lovin' You
TTITLE6=Not That Kind
TTITLE7=Love Is Alive
TTITLE8=Welcome To My Truth
TTITLE9=Heavy On My Heart
TTITLE10=I Do
TTITLE11=You'll Never Be Alone
TTITLE12=Paid My Due
TTITLE13=Seasons Change
TTITLE14=Sexy Single
TTITLE15=Cowboys And Kisses
TTITLE16=Don't Stop (Doin' it)
TTITLE17=Overdue Goodbye
EXTD=
EXTT0=
EXTT1=
EXTT2=
EXTT3=
EXTT4=
EXTT5=
EXTT6=
EXTT7=
EXTT8=
EXTT9=
EXTT10=
EXTT11=
EXTT12=
EXTT13=
EXTT14=
EXTT15=
EXTT16=
EXTT17=
PLAYORDER=
